<?xml version="1.0" standalone="no"?>
<!DOCTYPE svg PUBLIC "-//W3C//DTD SVG 20010904//EN"
 "http://www.w3.org/TR/2001/REC-SVG-20010904/DTD/svg10.dtd">
<svg version="1.0" xmlns="http://www.w3.org/2000/svg"
 width="1024.000000pt" height="1024.000000pt" viewBox="0 0 1024.000000 1024.000000"
 preserveAspectRatio="xMidYMid meet">
<metadata>
Created by potrace 1.11, written by Peter Selinger 2001-2013
</metadata>
<g transform="translate(0.000000,1024.000000) scale(0.100000,-0.100000)"
fill="#000000" stroke="none">
<path d="M6200 8763 c-19 -2 -55 -8 -80 -14 -25 -6 -52 -12 -60 -14 -108 -23
-265 -135 -359 -256 -37 -48 -89 -164 -106 -234 -20 -84 -22 -220 -4 -301 7
-32 13 -61 14 -64 5 -24 30 -88 39 -100 6 -8 20 -33 31 -55 25 -50 168 -196
215 -220 19 -10 42 -23 50 -30 8 -8 17 -14 20 -14 3 0 19 -5 35 -12 119 -47
299 -62 415 -34 180 42 327 148 432 309 21 33 38 64 38 70 0 6 7 24 15 40 8
16 17 40 20 55 3 14 9 40 14 58 16 56 11 225 -9 305 -82 319 -391 538 -720
511z"/>
<path d="M5308 7395 c-1 -1 -24 -6 -50 -9 -74 -10 -179 -65 -233 -122 -5 -6
-41 -37 -80 -70 -38 -32 -75 -63 -81 -69 -6 -5 -33 -29 -60 -52 -27 -22 -87
-74 -134 -115 -47 -40 -110 -93 -139 -118 -30 -25 -59 -50 -65 -56 -9 -9 -340
-292 -505 -433 -30 -25 -59 -50 -65 -56 -6 -5 -40 -35 -76 -65 -36 -30 -70
-59 -76 -65 -6 -5 -35 -30 -64 -55 -149 -125 -277 -241 -296 -266 -101 -139
-112 -348 -26 -501 49 -88 106 -132 514 -398 8 -5 34 -23 58 -39 24 -16 163
-107 309 -203 146 -96 301 -198 344 -226 42 -28 78 -53 78 -56 1 -4 2 -373 3
-821 2 -892 1 -877 62 -980 38 -64 126 -150 186 -181 139 -71 319 -63 449 19
63 40 148 140 176 206 13 31 27 82 31 113 4 32 7 488 7 1013 -1 899 -2 958
-19 1010 -10 30 -27 71 -37 90 -30 61 -120 147 -219 209 -52 33 -100 65 -107
71 -7 5 -14 10 -17 10 -5 0 -336 211 -371 237 l-25 18 166 140 c92 77 174 147
183 156 9 8 43 37 76 65 33 27 62 51 65 54 6 6 122 104 159 135 13 11 34 29
47 40 12 12 37 32 55 45 18 14 42 35 53 48 11 12 25 22 30 22 6 0 34 -18 61
-41 84 -67 114 -92 290 -232 94 -75 177 -142 185 -150 32 -30 119 -88 156
-103 89 -37 135 -40 659 -39 535 1 551 3 655 62 68 38 155 134 191 210 75 158
39 369 -84 490 -65 65 -70 69 -118 94 -94 50 -109 51 -552 55 l-418 4 -202
162 c-111 89 -207 167 -214 173 -6 5 -24 20 -40 32 -16 12 -81 64 -145 115
-63 51 -130 105 -149 120 -19 14 -90 72 -158 127 -107 86 -241 173 -241 157 0
-3 -12 -1 -27 5 -26 10 -147 21 -155 14z"/>
<path d="M2218 5115 c-2 -2 -30 -6 -63 -9 -72 -7 -144 -20 -228 -42 -34 -9
-69 -18 -77 -20 -47 -11 -188 -68 -266 -106 -174 -87 -316 -191 -480 -353
-159 -157 -254 -286 -361 -490 -20 -39 -64 -140 -67 -155 -2 -8 -6 -24 -10
-35 -37 -97 -68 -227 -81 -330 -4 -32 -9 -68 -11 -80 -12 -52 -5 -368 11 -470
60 -405 226 -728 529 -1027 66 -65 123 -118 126 -118 4 0 20 -11 36 -26 92
-80 314 -207 454 -259 41 -15 84 -31 95 -36 30 -13 193 -49 250 -56 28 -3 53
-7 56 -9 7 -4 197 -17 254 -18 51 0 232 12 265 18 14 3 54 10 90 16 138 24
390 105 406 131 3 5 9 7 14 4 4 -3 13 2 20 10 7 8 18 15 25 15 6 0 49 23 95
50 46 28 85 50 87 50 2 0 48 35 101 77 289 228 505 521 620 838 21 60 31 95
58 210 19 79 36 243 39 365 3 165 -9 288 -51 500 -7 35 -62 199 -79 235 -107
231 -212 392 -351 537 -312 325 -615 490 -1034 564 -71 13 -462 28 -472 19z
m339 -923 c17 -6 33 -8 36 -6 2 2 31 -7 66 -20 34 -14 64 -25 66 -25 14 -2
117 -59 168 -93 72 -49 182 -156 235 -229 248 -343 218 -825 -70 -1126 -157
-165 -292 -243 -498 -288 -72 -15 -256 -18 -316 -5 -22 5 -52 11 -69 13 -70
12 -202 71 -289 129 -72 49 -197 172 -248 245 -75 106 -126 228 -149 353 -17
100 -15 270 6 340 2 8 6 26 9 40 9 56 71 196 116 263 86 128 216 247 347 318
67 37 175 79 218 86 17 3 48 8 70 13 52 10 261 5 302 -8z"/>
<path d="M7625 5108 c-265 -37 -492 -114 -693 -236 -82 -49 -209 -141 -251
-182 -15 -14 -51 -48 -81 -76 -161 -150 -328 -375 -395 -534 -10 -25 -24 -52
-31 -60 -6 -8 -15 -28 -19 -45 -10 -34 -9 -33 -19 -60 -4 -11 -13 -33 -19 -50
-6 -16 -12 -34 -14 -40 -1 -5 -11 -50 -22 -100 -38 -174 -49 -284 -45 -470 2
-82 5 -159 7 -170 3 -11 8 -45 12 -75 14 -113 58 -282 98 -380 6 -14 11 -27
12 -30 5 -24 83 -173 125 -240 156 -253 400 -495 635 -632 248 -145 474 -217
765 -244 68 -6 270 -6 330 0 123 12 241 34 340 61 30 8 62 17 70 19 8 2 29 10
45 17 17 6 35 13 40 14 15 4 215 101 250 122 78 47 132 82 152 102 12 11 25
21 29 21 9 0 150 124 203 179 104 109 131 141 192 227 143 203 214 353 275
581 14 52 27 112 30 136 3 23 10 69 16 102 10 60 14 374 4 430 -10 63 -17 111
-21 141 -2 17 -11 60 -20 95 -9 35 -18 71 -20 79 -9 44 -61 183 -99 264 -45
96 -128 230 -204 331 -57 76 -304 321 -331 330 -12 3 -21 10 -21 14 0 14 -163
119 -272 176 -163 85 -374 154 -523 170 -33 4 -64 10 -69 13 -15 9 -396 9
-461 0z m430 -921 c128 -30 279 -108 383 -200 52 -45 152 -150 152 -160 0 -4
8 -16 18 -27 46 -49 124 -230 137 -318 3 -20 9 -59 13 -87 12 -82 2 -247 -18
-300 -5 -14 -8 -25 -6 -25 15 0 -80 -217 -110 -251 -8 -8 -14 -19 -14 -22 0
-24 -183 -205 -261 -258 -96 -65 -203 -109 -322 -134 -71 -14 -279 -18 -328
-5 -176 45 -236 70 -339 138 -165 109 -310 293 -368 467 -58 175 -62 385 -11
550 46 148 123 271 245 391 60 59 207 166 233 170 3 0 29 11 56 24 97 46 217
67 355 64 69 -1 152 -9 185 -17z"/>
</g>
</svg>
